<svg width="1821" height="2138" viewBox="0 0 1821 2138" fill="none" xmlns="http://www.w3.org/2000/svg">
<path opacity="0.75" d="M782.932 2089.91C782.932 2096.12 781.795 2101.46 779.523 2105.93C777.25 2110.38 774.134 2113.81 770.176 2116.22C766.237 2118.6 761.758 2119.8 756.739 2119.8C751.701 2119.8 747.203 2118.6 743.244 2116.22C739.305 2113.81 736.199 2110.37 733.926 2105.9C731.653 2101.43 730.517 2096.1 730.517 2089.91C730.517 2083.7 731.653 2078.37 733.926 2073.91C736.199 2069.45 739.305 2066.02 743.244 2063.63C747.203 2061.23 751.701 2060.02 756.739 2060.02C761.758 2060.02 766.237 2061.23 770.176 2063.63C774.134 2066.02 777.25 2069.45 779.523 2073.91C781.795 2078.37 782.932 2083.7 782.932 2089.91ZM774.239 2089.91C774.239 2085.17 773.472 2081.19 771.938 2077.95C770.422 2074.69 768.339 2072.23 765.688 2070.56C763.055 2068.88 760.072 2068.03 756.739 2068.03C753.386 2068.03 750.394 2068.88 747.761 2070.56C745.129 2072.23 743.045 2074.69 741.511 2077.95C739.996 2081.19 739.239 2085.17 739.239 2089.91C739.239 2094.64 739.996 2098.64 741.511 2101.9C743.045 2105.14 745.129 2107.6 747.761 2109.28C750.394 2110.95 753.386 2111.78 756.739 2111.78C760.072 2111.78 763.055 2110.95 765.688 2109.28C768.339 2107.6 770.422 2105.14 771.938 2101.9C773.472 2098.64 774.239 2094.64 774.239 2089.91ZM788.507 2068.38V2060.82H833.536V2068.38H815.382V2119H806.632V2068.38H788.507ZM843.486 2119V2060.82H852.264V2086.1H881.27V2060.82H890.077V2119H881.27V2093.63H852.264V2119H843.486ZM902.861 2119V2060.82H939.338V2068.38H911.639V2086.1H937.435V2093.63H911.639V2111.44H939.679V2119H902.861ZM951.064 2119V2060.82H971.803C976.31 2060.82 980.051 2061.59 983.024 2063.15C986.017 2064.7 988.251 2066.85 989.729 2069.6C991.206 2072.32 991.945 2075.48 991.945 2079.06C991.945 2082.62 991.196 2085.75 989.7 2088.46C988.223 2091.15 985.988 2093.24 982.996 2094.74C980.022 2096.23 976.282 2096.98 971.774 2096.98H956.064V2089.43H970.979C973.82 2089.43 976.13 2089.02 977.911 2088.2C979.71 2087.39 981.026 2086.21 981.859 2084.65C982.693 2083.1 983.109 2081.23 983.109 2079.06C983.109 2076.86 982.683 2074.96 981.831 2073.35C980.998 2071.74 979.681 2070.51 977.882 2069.65C976.102 2068.78 973.763 2068.35 970.865 2068.35H959.842V2119H951.064ZM979.786 2092.75L994.161 2119H984.161L970.07 2092.75H979.786Z" fill="white"/>
<path d="M864 1828C918.676 1828 963 1872.32 963 1927C963 1981.68 918.676 2026 864 2026C809.324 2026 765 1981.68 765 1927C765 1872.32 809.324 1828 864 1828Z" fill="#2B3538" stroke="#D99B77" stroke-width="2"/>
<path d="M814 1939.5C814 1951.92 824.078 1962 836.5 1962H894C905.047 1962 914 1953.05 914 1942C914 1932.33 907.125 1924.25 898 1922.41C898.641 1920.73 899 1918.91 899 1917C899 1908.72 892.281 1902 884 1902C880.922 1902 878.047 1902.94 875.672 1904.53C871.344 1897.03 863.266 1892 854 1892C840.187 1892 829 1903.19 829 1917C829 1917.42 829.016 1917.84 829.031 1918.27C820.281 1921.34 814 1929.69 814 1939.5Z" fill="#D99B77"/>
<path opacity="0.75" d="M606.392 278V219.818H615.17V247.602H615.881L640.284 219.818H651.335L627.869 246.011L651.42 278H640.852L622.045 252.006L615.17 259.903V278H606.392ZM706.477 219.818V278H698.409L668.835 235.33H668.295V278H659.517V219.818H667.642L697.244 262.545H697.784V219.818H706.477ZM769.822 248.909C769.822 255.121 768.686 260.462 766.413 264.932C764.141 269.383 761.025 272.811 757.067 275.216C753.127 277.602 748.648 278.795 743.629 278.795C738.591 278.795 734.093 277.602 730.135 275.216C726.196 272.811 723.089 269.373 720.817 264.903C718.544 260.434 717.408 255.102 717.408 248.909C717.408 242.697 718.544 237.366 720.817 232.915C723.089 228.445 726.196 225.017 730.135 222.631C734.093 220.225 738.591 219.023 743.629 219.023C748.648 219.023 753.127 220.225 757.067 222.631C761.025 225.017 764.141 228.445 766.413 232.915C768.686 237.366 769.822 242.697 769.822 248.909ZM761.129 248.909C761.129 244.174 760.362 240.187 758.828 236.949C757.313 233.691 755.23 231.229 752.578 229.562C749.946 227.877 746.963 227.034 743.629 227.034C740.277 227.034 737.285 227.877 734.652 229.562C732.019 231.229 729.936 233.691 728.402 236.949C726.887 240.187 726.129 244.174 726.129 248.909C726.129 253.644 726.887 257.64 728.402 260.898C729.936 264.136 732.019 266.598 734.652 268.284C737.285 269.951 740.277 270.784 743.629 270.784C746.963 270.784 749.946 269.951 752.578 268.284C755.23 266.598 757.313 264.136 758.828 260.898C760.362 257.64 761.129 253.644 761.129 248.909ZM791.456 278L775.32 219.818H784.553L795.888 264.875H796.428L808.217 219.818H817.365L829.155 264.903H829.695L841.001 219.818H850.263L834.098 278H825.263L813.018 234.42H812.564L800.32 278H791.456ZM858.267 278V219.818H867.045V270.443H893.409V278H858.267ZM903.423 278V219.818H939.901V227.375H912.202V245.102H937.997V252.631H912.202V270.443H940.241V278H903.423ZM970.462 278H951.626V219.818H971.058C976.759 219.818 981.655 220.983 985.746 223.312C989.837 225.623 992.971 228.947 995.149 233.284C997.346 237.602 998.445 242.782 998.445 248.824C998.445 254.884 997.337 260.093 995.121 264.449C992.924 268.805 989.742 272.157 985.575 274.506C981.409 276.835 976.371 278 970.462 278ZM960.405 270.33H969.979C974.411 270.33 978.094 269.496 981.03 267.83C983.965 266.144 986.162 263.71 987.621 260.528C989.079 257.328 989.808 253.426 989.808 248.824C989.808 244.259 989.079 240.386 987.621 237.205C986.181 234.023 984.032 231.608 981.172 229.96C978.312 228.312 974.761 227.489 970.518 227.489H960.405V270.33ZM1048.74 238.199C1048.19 236.475 1047.45 234.932 1046.52 233.568C1045.61 232.186 1044.52 231.011 1043.25 230.045C1041.98 229.061 1040.54 228.312 1038.91 227.801C1037.3 227.29 1035.53 227.034 1033.59 227.034C1030.32 227.034 1027.36 227.877 1024.73 229.562C1022.1 231.248 1020.01 233.72 1018.48 236.977C1016.96 240.216 1016.21 244.184 1016.21 248.881C1016.21 253.597 1016.97 257.583 1018.51 260.841C1020.04 264.098 1022.14 266.57 1024.82 268.256C1027.49 269.941 1030.53 270.784 1033.93 270.784C1037.1 270.784 1039.85 270.14 1042.2 268.852C1044.57 267.564 1046.4 265.746 1047.68 263.398C1048.99 261.03 1049.64 258.246 1049.64 255.045L1051.92 255.472H1035.27V248.227H1058.14V254.847C1058.14 259.733 1057.1 263.975 1055.01 267.574C1052.95 271.153 1050.09 273.919 1046.43 275.869C1042.8 277.82 1038.63 278.795 1033.93 278.795C1028.67 278.795 1024.05 277.583 1020.07 275.159C1016.11 272.735 1013.03 269.297 1010.81 264.847C1008.59 260.377 1007.49 255.074 1007.49 248.938C1007.49 244.297 1008.13 240.131 1009.42 236.438C1010.71 232.744 1012.51 229.61 1014.84 227.034C1017.19 224.439 1019.95 222.46 1023.11 221.097C1026.29 219.714 1029.77 219.023 1033.54 219.023C1036.68 219.023 1039.61 219.487 1042.32 220.415C1045.04 221.343 1047.47 222.659 1049.59 224.364C1051.73 226.068 1053.5 228.095 1054.9 230.443C1056.3 232.773 1057.25 235.358 1057.74 238.199H1048.74ZM1069.28 278V219.818H1105.76V227.375H1078.06V245.102H1103.86V252.631H1078.06V270.443H1106.1V278H1069.28Z" fill="white"/>
<path d="M865 1C919.676 1 964 45.3238 964 100C964 154.676 919.676 199 865 199C810.324 199 766 154.676 766 100C766 45.3238 810.324 1 865 1Z" fill="#2B3538" stroke="#D99B77" stroke-width="2"/>
<g clip-path="url(#clip0_64_601)">
<path d="M865 65C863.734 65 862.484 65.2187 861.297 65.6406L817.469 81.4687C815.984 82.0156 815 83.4219 815 85C815 86.5781 815.984 87.9844 817.469 88.5313L826.516 91.7969C823.953 95.8281 822.5 100.594 822.5 105.609V110C822.5 114.437 820.813 119.016 819.016 122.625C818 124.656 816.844 126.656 815.5 128.5C815 129.172 814.859 130.047 815.141 130.844C815.422 131.641 816.078 132.234 816.891 132.438L826.891 134.938C827.547 135.109 828.25 134.984 828.828 134.625C829.406 134.266 829.813 133.672 829.938 133C831.281 126.313 830.609 120.312 829.609 116.016C829.109 113.797 828.438 111.531 827.5 109.453V105.609C827.5 100.891 829.094 96.4375 831.859 92.875C833.875 90.4531 836.484 88.5 839.547 87.2969L864.078 77.6562C865.359 77.1562 866.813 77.7813 867.313 79.0625C867.813 80.3437 867.188 81.7969 865.906 82.2969L841.375 91.9375C839.438 92.7031 837.734 93.875 836.344 95.3125L861.281 104.313C862.469 104.734 863.719 104.953 864.984 104.953C866.25 104.953 867.5 104.734 868.688 104.313L912.531 88.5313C914.016 88 915 86.5781 915 85C915 83.4219 914.016 82.0156 912.531 81.4687L868.703 65.6406C867.516 65.2187 866.266 65 865 65ZM835 123.75C835 129.266 848.438 135 865 135C881.563 135 895 129.266 895 123.75L892.609 101.031L870.391 109.062C868.656 109.688 866.828 110 865 110C863.172 110 861.328 109.688 859.609 109.062L837.391 101.031L835 123.75Z" fill="#D99B77"/>
</g>
<path opacity="0.75" d="M1522.72 841.739H1513.85C1513.51 839.845 1512.88 838.178 1511.95 836.739C1511.02 835.299 1509.88 834.078 1508.54 833.074C1507.2 832.07 1505.69 831.312 1504.02 830.801C1502.38 830.29 1500.62 830.034 1498.77 830.034C1495.41 830.034 1492.41 830.877 1489.76 832.562C1487.13 834.248 1485.05 836.72 1483.51 839.977C1482 843.235 1481.24 847.212 1481.24 851.909C1481.24 856.644 1482 860.64 1483.51 863.898C1485.05 867.155 1487.14 869.617 1489.79 871.284C1492.44 872.951 1495.42 873.784 1498.74 873.784C1500.58 873.784 1502.32 873.538 1503.97 873.045C1505.63 872.534 1507.14 871.786 1508.48 870.801C1509.83 869.816 1510.96 868.614 1511.89 867.193C1512.84 865.754 1513.49 864.106 1513.85 862.25L1522.72 862.278C1522.24 865.138 1521.32 867.771 1519.96 870.176C1518.62 872.562 1516.88 874.627 1514.76 876.369C1512.66 878.093 1510.25 879.428 1507.55 880.375C1504.84 881.322 1501.88 881.795 1498.68 881.795C1493.64 881.795 1489.16 880.602 1485.22 878.216C1481.28 875.811 1478.17 872.373 1475.9 867.903C1473.64 863.434 1472.52 858.102 1472.52 851.909C1472.52 845.697 1473.65 840.366 1475.93 835.915C1478.2 831.445 1481.3 828.017 1485.24 825.631C1489.18 823.225 1493.66 822.023 1498.68 822.023C1501.77 822.023 1504.65 822.468 1507.32 823.358C1510.01 824.229 1512.42 825.517 1514.56 827.222C1516.7 828.907 1518.47 830.972 1519.88 833.415C1521.28 835.839 1522.22 838.614 1522.72 841.739ZM1583.76 851.909C1583.76 858.121 1582.62 863.462 1580.35 867.932C1578.08 872.383 1574.96 875.811 1571 878.216C1567.06 880.602 1562.59 881.795 1557.57 881.795C1552.53 881.795 1548.03 880.602 1544.07 878.216C1540.13 875.811 1537.03 872.373 1534.75 867.903C1532.48 863.434 1531.35 858.102 1531.35 851.909C1531.35 845.697 1532.48 840.366 1534.75 835.915C1537.03 831.445 1540.13 828.017 1544.07 825.631C1548.03 823.225 1552.53 822.023 1557.57 822.023C1562.59 822.023 1567.06 823.225 1571 825.631C1574.96 828.017 1578.08 831.445 1580.35 835.915C1582.62 840.366 1583.76 845.697 1583.76 851.909ZM1575.07 851.909C1575.07 847.174 1574.3 843.187 1572.77 839.949C1571.25 836.691 1569.17 834.229 1566.52 832.562C1563.88 830.877 1560.9 830.034 1557.57 830.034C1554.21 830.034 1551.22 830.877 1548.59 832.562C1545.96 834.229 1543.87 836.691 1542.34 839.949C1540.82 843.187 1540.07 847.174 1540.07 851.909C1540.07 856.644 1540.82 860.64 1542.34 863.898C1543.87 867.136 1545.96 869.598 1548.59 871.284C1551.22 872.951 1554.21 873.784 1557.57 873.784C1560.9 873.784 1563.88 872.951 1566.52 871.284C1569.17 869.598 1571.25 867.136 1572.77 863.898C1574.3 860.64 1575.07 856.644 1575.07 851.909ZM1613.54 881H1594.7V822.818H1614.14C1619.84 822.818 1624.73 823.983 1628.82 826.312C1632.91 828.623 1636.05 831.947 1638.23 836.284C1640.42 840.602 1641.52 845.782 1641.52 851.824C1641.52 857.884 1640.41 863.093 1638.2 867.449C1636 871.805 1632.82 875.157 1628.65 877.506C1624.49 879.835 1619.45 881 1613.54 881ZM1603.48 873.33H1613.06C1617.49 873.33 1621.17 872.496 1624.11 870.83C1627.04 869.144 1629.24 866.71 1630.7 863.528C1632.16 860.328 1632.89 856.426 1632.89 851.824C1632.89 847.259 1632.16 843.386 1630.7 840.205C1629.26 837.023 1627.11 834.608 1624.25 832.96C1621.39 831.312 1617.84 830.489 1613.6 830.489H1603.48V873.33ZM1652.44 881V822.818H1688.92V830.375H1661.22V848.102H1687.01V855.631H1661.22V873.443H1689.26V881H1652.44Z" fill="white"/>
<path d="M1582 604C1636.68 604 1681 648.324 1681 703C1681 757.676 1636.68 802 1582 802C1527.32 802 1483 757.676 1483 703C1483 648.324 1527.32 604 1582 604Z" fill="#2B3538" stroke="#D99B77" stroke-width="2"/>
<g clip-path="url(#clip1_64_601)">
<path d="M1593.37 663.188C1590.72 662.422 1587.95 663.969 1587.19 666.625L1567.19 736.625C1566.42 739.281 1567.97 742.047 1570.63 742.813C1573.28 743.578 1576.05 742.031 1576.81 739.375L1596.81 669.375C1597.58 666.719 1596.03 663.953 1593.37 663.188ZM1605.97 681.953C1604.02 683.906 1604.02 687.078 1605.97 689.031L1619.92 703L1605.95 716.969C1604 718.922 1604 722.094 1605.95 724.047C1607.91 726 1611.08 726 1613.03 724.047L1630.53 706.547C1632.48 704.594 1632.48 701.422 1630.53 699.469L1613.03 681.969C1611.08 680.016 1607.91 680.016 1605.95 681.969L1605.97 681.953ZM1558.05 681.953C1556.09 680 1552.92 680 1550.97 681.953L1533.47 699.453C1531.52 701.406 1531.52 704.578 1533.47 706.531L1550.97 724.031C1552.92 725.984 1556.09 725.984 1558.05 724.031C1560 722.078 1560 718.906 1558.05 716.953L1544.08 703L1558.05 689.031C1560 687.078 1560 683.906 1558.05 681.953Z" fill="#D99B77"/>
</g>
<path opacity="0.75" d="M6.39205 881V822.818H15.1705V873.443H41.5341V881H6.39205ZM99.8224 851.909C99.8224 858.121 98.6861 863.462 96.4134 867.932C94.1406 872.383 91.0251 875.811 87.0668 878.216C83.1274 880.602 78.6482 881.795 73.6293 881.795C68.5914 881.795 64.0933 880.602 60.1349 878.216C56.1955 875.811 53.0895 872.373 50.8168 867.903C48.544 863.434 47.4077 858.102 47.4077 851.909C47.4077 845.697 48.544 840.366 50.8168 835.915C53.0895 831.445 56.1955 828.017 60.1349 825.631C64.0933 823.225 68.5914 822.023 73.6293 822.023C78.6482 822.023 83.1274 823.225 87.0668 825.631C91.0251 828.017 94.1406 831.445 96.4134 835.915C98.6861 840.366 99.8224 845.697 99.8224 851.909ZM91.1293 851.909C91.1293 847.174 90.3622 843.187 88.8281 839.949C87.313 836.691 85.2296 834.229 82.5781 832.562C79.9455 830.877 76.9626 830.034 73.6293 830.034C70.277 830.034 67.2846 830.877 64.652 832.562C62.0194 834.229 59.9361 836.691 58.402 839.949C56.8868 843.187 56.1293 847.174 56.1293 851.909C56.1293 856.644 56.8868 860.64 58.402 863.898C59.9361 867.136 62.0194 869.598 64.652 871.284C67.2846 872.951 70.277 873.784 73.6293 873.784C76.9626 873.784 79.9455 872.951 82.5781 871.284C85.2296 869.598 87.313 867.136 88.8281 863.898C90.3622 860.64 91.1293 856.644 91.1293 851.909ZM150.142 841.199C149.593 839.475 148.854 837.932 147.926 836.568C147.017 835.186 145.928 834.011 144.659 833.045C143.39 832.061 141.941 831.312 140.312 830.801C138.703 830.29 136.932 830.034 135 830.034C131.723 830.034 128.769 830.877 126.136 832.562C123.504 834.248 121.42 836.72 119.886 839.977C118.371 843.216 117.614 847.184 117.614 851.881C117.614 856.597 118.381 860.583 119.915 863.841C121.449 867.098 123.551 869.57 126.222 871.256C128.892 872.941 131.932 873.784 135.341 873.784C138.504 873.784 141.259 873.14 143.608 871.852C145.975 870.564 147.803 868.746 149.091 866.398C150.398 864.03 151.051 861.246 151.051 858.045L153.324 858.472H136.676V851.227H159.545V857.847C159.545 862.733 158.504 866.975 156.42 870.574C154.356 874.153 151.496 876.919 147.841 878.869C144.205 880.82 140.038 881.795 135.341 881.795C130.076 881.795 125.455 880.583 121.477 878.159C117.519 875.735 114.432 872.297 112.216 867.847C110 863.377 108.892 858.074 108.892 851.938C108.892 847.297 109.536 843.131 110.824 839.438C112.112 835.744 113.92 832.61 116.25 830.034C118.598 827.439 121.354 825.46 124.517 824.097C127.699 822.714 131.174 822.023 134.943 822.023C138.087 822.023 141.013 822.487 143.722 823.415C146.449 824.343 148.873 825.659 150.994 827.364C153.134 829.068 154.905 831.095 156.307 833.443C157.708 835.773 158.655 838.358 159.148 841.199H150.142ZM179.467 822.818V881H170.689V822.818H179.467ZM240.575 841.739H231.712C231.371 839.845 230.736 838.178 229.808 836.739C228.88 835.299 227.744 834.078 226.399 833.074C225.054 832.07 223.549 831.312 221.882 830.801C220.234 830.29 218.482 830.034 216.626 830.034C213.274 830.034 210.272 830.877 207.621 832.562C204.988 834.248 202.905 836.72 201.371 839.977C199.856 843.235 199.098 847.212 199.098 851.909C199.098 856.644 199.856 860.64 201.371 863.898C202.905 867.155 204.998 869.617 207.649 871.284C210.301 872.951 213.284 873.784 216.598 873.784C218.435 873.784 220.178 873.538 221.825 873.045C223.492 872.534 224.998 871.786 226.342 870.801C227.687 869.816 228.823 868.614 229.751 867.193C230.698 865.754 231.352 864.106 231.712 862.25L240.575 862.278C240.102 865.138 239.183 867.771 237.82 870.176C236.475 872.562 234.742 874.627 232.621 876.369C230.518 878.093 228.113 879.428 225.405 880.375C222.696 881.322 219.742 881.795 216.541 881.795C211.503 881.795 207.015 880.602 203.075 878.216C199.136 875.811 196.03 872.373 193.757 867.903C191.503 863.434 190.376 858.102 190.376 851.909C190.376 845.697 191.513 840.366 193.786 835.915C196.058 831.445 199.164 828.017 203.104 825.631C207.043 823.225 211.522 822.023 216.541 822.023C219.628 822.023 222.507 822.468 225.178 823.358C227.867 824.229 230.282 825.517 232.422 827.222C234.562 828.907 236.333 830.972 237.734 833.415C239.136 835.839 240.083 838.614 240.575 841.739Z" fill="white"/>
<path d="M123 604C177.676 604 222 648.324 222 703C222 757.676 177.676 802 123 802C68.3238 802 24 757.676 24 703C24 648.324 68.3238 604 123 604Z" fill="#2B3538" stroke="#D99B77" stroke-width="2"/>
<path d="M160.484 689.031C160.984 690.391 160.562 691.906 159.484 692.875L152.719 699.031C152.891 700.328 152.984 701.656 152.984 703C152.984 704.344 152.891 705.672 152.719 706.969L159.484 713.125C160.562 714.094 160.984 715.609 160.484 716.969C159.797 718.828 158.969 720.609 158.016 722.328L157.281 723.594C156.25 725.312 155.094 726.937 153.828 728.469C152.906 729.594 151.375 729.969 150 729.531L141.297 726.766C139.203 728.375 136.891 729.719 134.422 730.734L132.469 739.656C132.156 741.078 131.062 742.203 129.625 742.437C127.469 742.797 125.25 742.984 122.984 742.984C120.719 742.984 118.5 742.797 116.344 742.437C114.906 742.203 113.812 741.078 113.5 739.656L111.547 730.734C109.078 729.719 106.766 728.375 104.672 726.766L95.9844 729.547C94.6094 729.984 93.0781 729.594 92.1562 728.484C90.8906 726.953 89.7344 725.328 88.7031 723.609L87.9687 722.344C87.0156 720.625 86.1875 718.844 85.5 716.984C85 715.625 85.4219 714.109 86.5 713.141L93.2656 706.984C93.0937 705.672 93 704.344 93 703C93 701.656 93.0937 700.328 93.2656 699.031L86.5 692.875C85.4219 691.906 85 690.391 85.5 689.031C86.1875 687.172 87.0156 685.391 87.9687 683.672L88.7031 682.406C89.7344 680.687 90.8906 679.063 92.1562 677.531C93.0781 676.406 94.6094 676.031 95.9844 676.469L104.687 679.234C106.781 677.625 109.094 676.281 111.562 675.266L113.516 666.344C113.828 664.922 114.922 663.797 116.359 663.562C118.516 663.187 120.734 663 123 663C125.266 663 127.484 663.188 129.641 663.547C131.078 663.781 132.172 664.906 132.484 666.328L134.437 675.25C136.906 676.266 139.219 677.609 141.312 679.219L150.016 676.453C151.391 676.016 152.922 676.406 153.844 677.516C155.109 679.047 156.266 680.672 157.297 682.391L158.031 683.656C158.984 685.375 159.812 687.156 160.5 689.016L160.484 689.031ZM123 715.5C126.315 715.5 129.495 714.183 131.839 711.839C134.183 709.495 135.5 706.315 135.5 703C135.5 699.685 134.183 696.505 131.839 694.161C129.495 691.817 126.315 690.5 123 690.5C119.685 690.5 116.505 691.817 114.161 694.161C111.817 696.505 110.5 699.685 110.5 703C110.5 706.315 111.817 709.495 114.161 711.839C116.505 714.183 119.685 715.5 123 715.5Z" fill="#D99B77"/>
<path opacity="0.75" d="M1348.39 1532V1473.82H1369.13C1373.66 1473.82 1377.41 1474.64 1380.38 1476.29C1383.35 1477.94 1385.58 1480.19 1387.06 1483.05C1388.53 1485.89 1389.27 1489.09 1389.27 1492.65C1389.27 1496.23 1388.52 1499.45 1387.03 1502.31C1385.55 1505.15 1383.32 1507.41 1380.32 1509.07C1377.35 1510.72 1373.61 1511.55 1369.1 1511.55H1354.84V1504.1H1368.31C1371.17 1504.1 1373.49 1503.61 1375.27 1502.62C1377.05 1501.62 1378.35 1500.26 1379.19 1498.53C1380.02 1496.81 1380.44 1494.85 1380.44 1492.65C1380.44 1490.46 1380.02 1488.51 1379.19 1486.8C1378.35 1485.1 1377.04 1483.76 1375.24 1482.8C1373.46 1481.83 1371.11 1481.35 1368.19 1481.35H1357.17V1532H1348.39ZM1398.31 1532H1388.99L1409.93 1473.82H1420.07L1441.01 1532H1431.69L1415.24 1484.39H1414.78L1398.31 1532ZM1399.87 1509.22H1430.1V1516.6H1399.87V1509.22ZM1449.41 1532V1473.82H1470.15C1474.65 1473.82 1478.39 1474.59 1481.37 1476.15C1484.36 1477.7 1486.6 1479.85 1488.07 1482.6C1489.55 1485.32 1490.29 1488.48 1490.29 1492.06C1490.29 1495.62 1489.54 1498.75 1488.04 1501.46C1486.57 1504.15 1484.33 1506.24 1481.34 1507.74C1478.37 1509.23 1474.63 1509.98 1470.12 1509.98H1454.41V1502.43H1469.32C1472.16 1502.43 1474.47 1502.02 1476.25 1501.2C1478.05 1500.39 1479.37 1499.21 1480.2 1497.65C1481.04 1496.1 1481.45 1494.23 1481.45 1492.06C1481.45 1489.86 1481.03 1487.96 1480.17 1486.35C1479.34 1484.74 1478.03 1483.51 1476.23 1482.65C1474.45 1481.78 1472.11 1481.35 1469.21 1481.35H1458.19V1532H1449.41ZM1478.13 1505.75L1492.5 1532H1482.5L1468.41 1505.75H1478.13ZM1505.88 1532H1496.57L1517.5 1473.82H1527.65L1548.58 1532H1539.27L1522.82 1484.39H1522.36L1505.88 1532ZM1507.45 1509.22H1537.67V1516.6H1507.45V1509.22ZM1575.82 1532H1556.99V1473.82H1576.42C1582.12 1473.82 1587.01 1474.98 1591.11 1477.31C1595.2 1479.62 1598.33 1482.95 1600.51 1487.28C1602.71 1491.6 1603.8 1496.78 1603.8 1502.82C1603.8 1508.88 1602.7 1514.09 1600.48 1518.45C1598.28 1522.8 1595.1 1526.16 1590.93 1528.51C1586.77 1530.84 1581.73 1532 1575.82 1532ZM1565.76 1524.33H1575.34C1579.77 1524.33 1583.45 1523.5 1586.39 1521.83C1589.32 1520.14 1591.52 1517.71 1592.98 1514.53C1594.44 1511.33 1595.17 1507.43 1595.17 1502.82C1595.17 1498.26 1594.44 1494.39 1592.98 1491.2C1591.54 1488.02 1589.39 1485.61 1586.53 1483.96C1583.67 1482.31 1580.12 1481.49 1575.88 1481.49H1565.76V1524.33ZM1623.5 1473.82V1532H1614.72V1473.82H1623.5ZM1675.66 1492.2C1675.11 1490.48 1674.37 1488.93 1673.44 1487.57C1672.53 1486.19 1671.44 1485.01 1670.17 1484.05C1668.91 1483.06 1667.46 1482.31 1665.83 1481.8C1664.22 1481.29 1662.45 1481.03 1660.52 1481.03C1657.24 1481.03 1654.28 1481.88 1651.65 1483.56C1649.02 1485.25 1646.94 1487.72 1645.4 1490.98C1643.89 1494.22 1643.13 1498.18 1643.13 1502.88C1643.13 1507.6 1643.9 1511.58 1645.43 1514.84C1646.96 1518.1 1649.07 1520.57 1651.74 1522.26C1654.41 1523.94 1657.45 1524.78 1660.86 1524.78C1664.02 1524.78 1666.78 1524.14 1669.12 1522.85C1671.49 1521.56 1673.32 1519.75 1674.61 1517.4C1675.91 1515.03 1676.57 1512.25 1676.57 1509.05L1678.84 1509.47H1662.19V1502.23H1685.06V1508.85C1685.06 1513.73 1684.02 1517.98 1681.94 1521.57C1679.87 1525.15 1677.01 1527.92 1673.36 1529.87C1669.72 1531.82 1665.55 1532.8 1660.86 1532.8C1655.59 1532.8 1650.97 1531.58 1646.99 1529.16C1643.03 1526.73 1639.95 1523.3 1637.73 1518.85C1635.52 1514.38 1634.41 1509.07 1634.41 1502.94C1634.41 1498.3 1635.05 1494.13 1636.34 1490.44C1637.63 1486.74 1639.44 1483.61 1641.77 1481.03C1644.11 1478.44 1646.87 1476.46 1650.03 1475.1C1653.21 1473.71 1656.69 1473.02 1660.46 1473.02C1663.6 1473.02 1666.53 1473.49 1669.24 1474.41C1671.96 1475.34 1674.39 1476.66 1676.51 1478.36C1678.65 1480.07 1680.42 1482.09 1681.82 1484.44C1683.22 1486.77 1684.17 1489.36 1684.66 1492.2H1675.66ZM1696.2 1473.82H1706.86L1725.38 1519.05H1726.06L1744.59 1473.82H1755.24V1532H1746.89V1489.9H1746.35L1729.19 1531.91H1722.26L1705.1 1489.87H1704.56V1532H1696.2V1473.82ZM1799.73 1489.1C1799.43 1486.41 1798.18 1484.33 1795.98 1482.85C1793.79 1481.36 1791.02 1480.61 1787.69 1480.61C1785.3 1480.61 1783.24 1480.99 1781.5 1481.74C1779.75 1482.48 1778.4 1483.51 1777.43 1484.81C1776.49 1486.1 1776.01 1487.57 1776.01 1489.22C1776.01 1490.6 1776.33 1491.79 1776.98 1492.8C1777.64 1493.8 1778.5 1494.64 1779.56 1495.32C1780.64 1495.99 1781.8 1496.55 1783.03 1497C1784.26 1497.44 1785.44 1497.8 1786.58 1498.08L1792.26 1499.56C1794.12 1500.01 1796.02 1500.63 1797.97 1501.4C1799.92 1502.18 1801.73 1503.2 1803.4 1504.47C1805.07 1505.74 1806.41 1507.31 1807.43 1509.19C1808.47 1511.06 1809 1513.31 1809 1515.92C1809 1519.22 1808.14 1522.14 1806.44 1524.7C1804.75 1527.26 1802.3 1529.27 1799.08 1530.75C1795.88 1532.23 1792.01 1532.97 1787.46 1532.97C1783.11 1532.97 1779.34 1532.27 1776.15 1530.89C1772.97 1529.51 1770.48 1527.55 1768.68 1525.01C1766.88 1522.45 1765.89 1519.42 1765.7 1515.92H1774.51C1774.68 1518.02 1775.36 1519.77 1776.55 1521.18C1777.76 1522.56 1779.31 1523.59 1781.18 1524.27C1783.08 1524.94 1785.15 1525.27 1787.4 1525.27C1789.89 1525.27 1792.09 1524.88 1794.02 1524.1C1795.97 1523.31 1797.51 1522.21 1798.63 1520.81C1799.74 1519.39 1800.3 1517.73 1800.3 1515.84C1800.3 1514.11 1799.81 1512.7 1798.83 1511.6C1797.86 1510.5 1796.54 1509.59 1794.88 1508.88C1793.23 1508.16 1791.36 1507.52 1789.28 1506.97L1782.4 1505.1C1777.75 1503.83 1774.05 1501.96 1771.33 1499.5C1768.62 1497.04 1767.26 1493.78 1767.26 1489.73C1767.26 1486.37 1768.17 1483.45 1769.99 1480.95C1771.81 1478.45 1774.27 1476.51 1777.38 1475.12C1780.48 1473.72 1783.99 1473.02 1787.89 1473.02C1791.83 1473.02 1795.3 1473.71 1798.31 1475.1C1801.34 1476.48 1803.73 1478.38 1805.47 1480.81C1807.22 1483.21 1808.12 1485.98 1808.2 1489.1H1799.73Z" fill="white"/>
<path d="M1582 1255C1636.68 1255 1681 1299.32 1681 1354C1681 1408.68 1636.68 1453 1582 1453C1527.32 1453 1483 1408.68 1483 1354C1483 1299.32 1527.32 1255 1582 1255Z" fill="#2B3538" stroke="#D99B77" stroke-width="2"/>
<path d="M1582 1314C1582.72 1314 1583.44 1314.16 1584.09 1314.45L1613.52 1326.94C1616.95 1328.39 1619.52 1331.78 1619.5 1335.88C1619.42 1351.37 1613.05 1379.73 1586.12 1392.63C1583.52 1393.88 1580.48 1393.88 1577.87 1392.63C1550.95 1379.73 1544.58 1351.37 1544.5 1335.88C1544.48 1331.78 1547.05 1328.39 1550.48 1326.94L1579.92 1314.45C1580.56 1314.16 1581.28 1314 1582 1314ZM1582 1324.44V1383.52C1603.56 1373.06 1609.36 1349.95 1609.5 1336.09L1582 1324.44Z" fill="#D99B77"/>
<path opacity="0.75" d="M48.2273 1532H29.392V1473.82H48.8239C54.5246 1473.82 59.4205 1474.98 63.5114 1477.31C67.6023 1479.62 70.7367 1482.95 72.9148 1487.28C75.1117 1491.6 76.2102 1496.78 76.2102 1502.82C76.2102 1508.88 75.1023 1514.09 72.8864 1518.45C70.6894 1522.8 67.5076 1526.16 63.3409 1528.51C59.1742 1530.84 54.1364 1532 48.2273 1532ZM38.1705 1524.33H47.7443C52.1761 1524.33 55.8598 1523.5 58.7955 1521.83C61.7311 1520.14 63.928 1517.71 65.3864 1514.53C66.8447 1511.33 67.5739 1507.43 67.5739 1502.82C67.5739 1498.26 66.8447 1494.39 65.3864 1491.2C63.947 1488.02 61.7973 1485.61 58.9375 1483.96C56.0777 1482.31 52.5265 1481.49 48.2841 1481.49H38.1705V1524.33ZM89.1506 1532H79.8324L100.77 1473.82H110.912L131.849 1532H122.531L106.082 1484.39H105.628L89.1506 1532ZM90.7131 1509.22H120.94V1516.6H90.7131V1509.22ZM130.507 1481.38V1473.82H175.536V1481.38H157.382V1532H148.632V1481.38H130.507ZM183.526 1532H174.207L195.145 1473.82H205.287L226.224 1532H216.906L200.457 1484.39H200.003L183.526 1532ZM185.088 1509.22H215.315V1516.6H185.088V1509.22Z" fill="white"/>
<path d="M129 1255C183.676 1255 228 1299.32 228 1354C228 1408.68 183.676 1453 129 1453C74.3238 1453 30 1408.68 30 1354C30 1299.32 74.3238 1255 129 1255Z" fill="#2B3538" stroke="#D99B77" stroke-width="2"/>
<g clip-path="url(#clip2_64_601)">
<path d="M164 1326.5V1334C164 1340.91 148.328 1346.5 129 1346.5C109.672 1346.5 94 1340.91 94 1334V1326.5C94 1319.59 109.672 1314 129 1314C148.328 1314 164 1319.59 164 1326.5ZM155.438 1347.55C158.688 1346.39 161.672 1344.91 164 1343.08V1359C164 1365.91 148.328 1371.5 129 1371.5C109.672 1371.5 94 1365.91 94 1359V1343.08C96.3281 1344.92 99.3125 1346.39 102.562 1347.55C109.578 1350.05 118.922 1351.5 129 1351.5C139.078 1351.5 148.422 1350.05 155.438 1347.55ZM94 1368.08C96.3281 1369.92 99.3125 1371.39 102.562 1372.55C109.578 1375.05 118.922 1376.5 129 1376.5C139.078 1376.5 148.422 1375.05 155.438 1372.55C158.688 1371.39 161.672 1369.91 164 1368.08V1381.5C164 1388.41 148.328 1394 129 1394C109.672 1394 94 1388.41 94 1381.5V1368.08Z" fill="#D99B77"/>
</g>
<line x1="282" y1="687.5" x2="814" y2="687.5" stroke="#D99B77"/>
<circle cx="280" cy="688" r="14.5" fill="#D99B77" stroke="#D99B77"/>
<line x1="917" y1="687.5" x2="1449" y2="687.5" stroke="#D99B77"/>
<circle cx="1434" cy="688" r="14.5" fill="#D99B77" stroke="#D99B77"/>
<line x1="917" y1="1363.5" x2="1449" y2="1363.5" stroke="#D99B77"/>
<circle cx="1434" cy="1364" r="14.5" fill="#D99B77" stroke="#D99B77"/>
<line x1="282" y1="1363.5" x2="814" y2="1363.5" stroke="#D99B77"/>
<circle cx="280" cy="1364" r="14.5" fill="#D99B77" stroke="#D99B77"/>
<line x1="864.5" y1="1788" x2="864.5" y2="324" stroke="#D99B77"/>
<circle cx="864" cy="324" r="14.5" fill="#D99B77" stroke="#D99B77"/>
<circle cx="864" cy="1788" r="14.5" fill="#D99B77" stroke="#D99B77"/>
<line x1="122.5" y1="1217" x2="122.5" y2="914" stroke="#D99B77"/>
<line x1="1581.5" y1="1217" x2="1581.5" y2="914" stroke="#D99B77"/>
<defs>
<clipPath id="clip0_64_601">
<rect width="100" height="80" fill="white" transform="translate(815 60)"/>
</clipPath>
<clipPath id="clip1_64_601">
<rect width="100" height="80" fill="white" transform="translate(1532 663)"/>
</clipPath>
<clipPath id="clip2_64_601">
<rect width="70" height="80" fill="white" transform="translate(94 1314)"/>
</clipPath>
</defs>
</svg>
